<svg xmlns="http://www.w3.org/2000/svg" width="78" height="78" viewBox="0 0 78 78" fill="none">
  <path d="M39 78C60.5391 78 78 60.5391 78 39C78 17.4609 60.5391 0 39 0C17.4609 0 0 17.4609 0 39C0 60.5391 17.4609 78 39 78Z" fill="#F7931A"/>
  <path d="M56.5232 34.1738C57.2886 29.0648 53.3959 26.3177 48.0773 24.4847L49.803 17.5622L45.591 16.5141L43.9091 23.2537C42.8025 22.9759 41.6666 22.7175 40.5332 22.4591L42.2273 15.6756L38.0153 14.625L36.2895 21.5451C35.373 21.3354 34.4711 21.1307 33.5985 20.9113L33.6034 20.8894L27.7924 19.4391L26.6711 23.9387C26.6711 23.9387 29.7985 24.6553 29.7326 24.6992C31.4389 25.1258 31.746 26.2543 31.6948 27.1513L29.7302 35.0366C29.8472 35.0659 29.9983 35.1098 30.1689 35.1756L29.7229 35.0659L26.9685 46.1126C26.7589 46.6294 26.2299 47.4069 25.0356 47.112C25.0795 47.1729 21.9741 46.3491 21.9741 46.3491L19.8827 51.1704L25.3671 52.5379C26.386 52.7938 27.3853 53.0619 28.3676 53.313L26.6248 60.3135L30.8344 61.3616L32.5601 54.4391C33.7106 54.7487 34.827 55.0363 35.919 55.3093L34.1981 62.2026L38.4101 63.2507L40.1529 56.2648C47.3387 57.6249 52.7402 57.0765 55.0144 50.5781C56.8474 45.3473 54.9242 42.3272 51.1436 40.3601C53.898 39.7264 55.9699 37.9153 56.5232 34.1738ZM46.8951 47.6726C45.5959 52.9059 36.7843 50.076 33.9276 49.3667L36.2432 40.092C39.1 40.8062 48.2576 42.2175 46.8951 47.6726ZM48.1991 34.0982C47.0121 38.8586 39.6801 36.4382 37.3035 35.8459L39.3998 27.4365C41.7763 28.0288 49.4374 29.133 48.1991 34.0982Z" fill="#EEF2FF"/>
</svg>